PathFileType	4	(X/Y/Z)	Run_200 02
DataRate	CameraRate	NumFrames	NumMarkers	Units	OrigDataRate	OrigDataStartFrame	OrigNumFrames
100	100	4	45	mm	100	195	137
Frame#	Time	RASI			LPSI			RTH1			RTH2			RTH3			LTH1			LTH2			LTH3			RTB1			RTB2			RTB3			RLMAL			RMMAL			LTB1			LTB2			LTB3			RCAL			RTOE			RMT5			LCAL			LTOE			LMT5			LACR			RACR			CLAV			C7			LPSH			RUA1			RUA2			RUA3			RLEL			RMEL			LUA1			LUA2			LUA3			LLEL			LMEL			RFAsuperior			RFAradius			LFAsuperior			LFAradius			LFAulna			LASI			RFAulna			RPSI			
		X1	Y1	Z1	X2	Y2	Z2	X3	Y3	Z3	X4	Y4	Z4	X5	Y5	Z5	X6	Y6	Z6	X7	Y7	Z7	X8	Y8	Z8	X9	Y9	Z9	X10	Y10	Z10	X11	Y11	Z11	X12	Y12	Z12	X13	Y13	Z13	X14	Y14	Z14	X15	Y15	Z15	X16	Y16	Z16	X17	Y17	Z17	X18	Y18	Z18	X19	Y19	Z19	X20	Y20	Z20	X21	Y21	Z21	X22	Y22	Z22	X23	Y23	Z23	X24	Y24	Z24	X25	Y25	Z25	X26	Y26	Z26	X27	Y27	Z27	X28	Y28	Z28	X29	Y29	Z29	X30	Y30	Z30	X31	Y31	Z31	X32	Y32	Z32	X33	Y33	Z33	X34	Y34	Z34	X35	Y35	Z35	X36	Y36	Z36	X37	Y37	Z37	X38	Y38	Z38	X39	Y39	Z39	X40	Y40	Z40	X41	Y41	Z41	X42	Y42	Z42	X43	Y43	Z43	X44	Y44	Z44	X45	Y45	Z45	

192	2.11	1047.981609	1037.83374	-358.701998	870.2077389999999	1068.2584	-514.11816	986.846667	768.982661	-315.046337	1060.327169	704.372967	-348.599812	998.1381249999999	600.130529	-347.925727	986.419756	822.792932	-642.794808	1091.436131	739.289367	-629.015128	1070.367901	630.46023	-617.844285	928.667454	391.158837	-372.830314	862.800554	401.447798	-323.781958	764.060161	314.057392	-344.863139	649.7903250000001	286.473707	-311.318073	670.942735	274.727955	-392.167777	1132.196199	403.012561	-570.280221	1038.291	313.883037	-608.731354	1077.113166	218.506168	-553.855271	603.8231489999999	329.437125	-365.954456	669.2225089999999	114.136838	-364.018933	626.787418	161.349374	-288.891823	942.454378	86.13776900000001	-516.47986	1169.933404	74.163292	-521.651058	1113.190962	56.782905	-592.546872	967.6266419999999	1522.759201	-666.880239	1002.061096	1535.573396	-354.003598	1067.290647	1469.909476	-487.905979	943.386656	1550.848501	-508.728193	886.0969219999999	1482.944921	-662.4700779999999	985.737476	1398.549953	-242.808243	914.184835	1341.170159	-228.540402	938.902009	1294.484363	-180.834351	965.259502	1230.586531	-156.408086	909.675054	1207.2563	-221.279967	869.67349	1396.714576	-710.683555	815.3049999999999	1326.920737	-661.507293	808.165303	1278.066503	-715.481501	799.624808	1197.569775	-734.212793	803.067524	1192.281627	-640.751098	1012.001764	1172.521874	-189.751921	1144.77938	1180.220455	-340.591637	890.923733	1173.610789	-711.7067479999999	1030.094653	1281.004306	-694.221731	1052.859911	1215.661386	-701.462004	1035.976161	1043.131561	-591.521756	1150.520378	1122.013019	-307.068696	875.575674	1063.827223	-425.573399	
193	2.12	1044.860452	1033.071674	-358.394468	867.063837	1064.208623	-513.6478519999999	989.532225	765.943493	-316.569153	1066.771549	703.73424	-349.44873	1008.082358	597.951838	-348.803791	983.508466	818.1244	-642.812619	1088.880346	735.593616	-629.912902	1068.083735	626.17087	-617.657495	942.408628	390.252046	-373.940202	876.554897	401.60578	-324.164017	777.145499	314.850778	-344.838252	662.758152	289.003115	-310.915137	683.46005	275.872813	-391.724432	1125.225289	398.572665	-569.507828	1027.683978	313.410528	-608.42391	1062.339696	216.281272	-553.6425410000001	615.737023	330.449163	-366.415117	683.300623	115.822126	-360.131196	641.495118	164.589286	-285.765652	922.42887	86.45716400000001	-516.757131	1150.340587	72.909378	-521.892605	1093.283105	56.373507	-592.9833609999999	968.122866	1516.09709	-668.263408	999.865493	1530.136368	-353.292238	1066.673855	1465.034453	-487.407584	943.5023190000001	1546.913574	-509.911078	887.48394	1474.079675	-665.4341460000001	980.046288	1391.401048	-242.873018	907.125837	1333.878453	-231.456418	930.006536	1287.266683	-182.833394	955.383296	1223.653707	-157.437095	902.204661	1200.632946	-224.135131	874.18207	1385.62317	-714.89778	819.13163	1314.480369	-667.753441	815.10676	1265.406791	-721.596908	808.753097	1185.685957	-740.770877	811.050615	1180.590865	-648.470542	1001.75476	1162.928392	-187.095353	1141.962334	1159.607211	-331.190123	899.28977	1160.382289	-715.8528690000001	1039.945426	1265.549809	-696.663599	1062.031529	1199.962505	-701.444228	1033.158425	1038.599026	-592.307539	1144.492978	1103.300028	-294.919859	871.806322	1059.54964	-425.315333	
194	2.13	1041.640241	1029.802914	-357.884135	863.855519	1061.035484	-513.806727	992.050268	763.725383	-317.577457	1073.085185	704.3662430000001	-350.093681	1018.069527	597.148897	-348.985753	979.844623	813.4467100000001	-642.723761	1084.085472	730.39298	-630.685976	1062.542191	620.864393	-616.6335769999999	956.792232	389.970807	-374.843919	890.6203860000001	402.218636	-324.296727	791.246132	315.100334	-344.829067	676.713361	290.230345	-310.868955	697.532976	275.899147	-391.599028	1116.361519	393.424193	-569.374782	1015.309719	311.685023	-607.3863229999999	1046.695875	213.486269	-553.047234	628.397689	329.583067	-367.449058	700.740598	116.723007	-356.090531	658.380257	166.544216	-282.844533	902.4253650000001	86.71657500000001	-516.550044	1130.561963	71.757898	-522.123893	1073.141451	56.211716	-593.328458	968.778902	1511.014363	-668.82719	997.721705	1525.848607	-352.631226	1065.832309	1461.021708	-486.532932	943.1876130000001	1543.37043	-510.187491	888.625305	1467.976694	-667.074607	974.327983	1385.806831	-243.306433	900.038573	1327.887016	-235.194927	921.232314	1281.18474	-185.766924	945.714524	1217.809533	-159.55075	895.166417	1194.882997	-228.019706	879.094513	1376.776637	-717.984968	823.620951	1303.318693	-673.524232	822.855134	1254.3745	-727.5842280000001	819.64806	1175.379109	-747.242439	820.325286	1170.048679	-656.0226699999999	991.305166	1154.383725	-185.249639	1138.297095	1139.500525	-321.848519	909.212183	1148.33462	-720.035293	1051.676569	1250.645334	-698.699298	1072.424427	1184.858807	-700.9374350000001	1030.705224	1034.709567	-592.5287970000001	1137.309195	1085.639989	-282.30785	868.9665230000001	1056.239808	-426.100574	
195	2.14	1038.504314	1027.749058	-357.435049	860.878389	1058.668146	-514.7650190000001	994.803396	762.274615	-318.061214	1079.172285	705.9249589999999	-350.208674	1028.054633	597.152127	-348.626302	975.625296	809.468493	-642.6204729999999	1077.866814	724.3914150000001	-631.062999	1054.950568	615.486183	-615.13316	971.518471	390.346746	-375.338214	904.814314	403.094557	-324.24029	806.184466	314.753329	-344.773585	691.520769	289.982893	-311.14625	713.017649	274.647229	-391.689678	1106.182897	388.228489	-569.317867	1002.05348	309.597736	-606.275647	1030.573552	210.725056	-552.29615	641.839364	326.799639	-368.985034	721.00128	116.720807	-351.872016	676.981969	167.186324	-280.048512	882.476809	87.063548	-516.24225	1110.690989	70.91898399999999	-522.161927	1052.991066	56.270436	-593.476165	969.736703	1507.50767	-668.843496	995.59981	1522.613605	-351.975081	1064.8105	1457.763479	-485.327945	942.340609	1540.156086	-509.858905	889.761543	1464.680684	-667.609588	968.718319	1381.751981	-244.013753	893.301169	1323.565586	-239.665896	912.983704	1276.644656	-189.490943	936.4408550000001	1213.313605	-162.450467	888.6139930000001	1190.374181	-232.568255	883.950634	1370.373987	-719.427538	829.040749	1293.703822	-678.553421	831.84743	1245.400774	-733.359477	832.382826	1167.174882	-753.437946	830.604764	1160.879258	-662.97457	980.826085	1147.254034	-184.009785	1133.231169	1120.38352	-313.195164	920.723853	1138.27579	-724.186833	1064.992478	1237.453001	-699.86776	1083.765105	1171.440929	-700.1138549999999	1028.473618	1031.376558	-592.281507	1128.955876	1069.838933	-269.696047	867.732465	1053.653011	-428.397542	
